Patient4_TMGait_0pt8_01_right_12_EMG.mot
version=1
nRows=13
nColumns=33
inDegrees=no
endheader
time	1LAddLong	2LGlutMax	3LGlutMed	4LIliopsoas	5LSemiMemb	6LBicFemLong	7LRecFem	8LVastMed	9LVastLat	10LGasMed	11LTibAnt	12lTibPost	13LPeroneusLong	14LSol	15LExtDigLong	16LFlexDigLong	17RAddLong	18RGlutMax	19RGlutMed	20RIliopsoas	21RSemiMemb	22RBicFemLong	23RRecFem	24RVastMed	25RVastLat	26RGasMed	27RTibAnt	28RTibPost	29RPeroneusLong	30RSol	31RExtDigLong	32RFlexDigLong
13.22	-0.010223	-0.060577	-0.093231	0.005188	0.049133	0.04715	0.28763	-0.00946	0.027313	0.14603	-0.10284	0.019073	0.08606	-0.21698	0.011292	-0.00351	-0.061035	0.27924	0.71884	0.16983	0.2092	0.046844	0.08194	-0.009766	-0.034943	-0.018158	0.11002	-0.002289	-0.21606	0.012207	-0.007324	-0.030365
13.221	0.003204	-0.057068	-0.088348	0.006561	0.024719	-0.011902	0.13001	-0.003052	0.11185	-0.093231	-0.065155	0.010071	0.043182	-0.14374	0.034027	-0.011902	-0.045624	0.30716	0.98557	0.1384	0.18799	0.051727	0.11643	0.000153	-0.054474	0.008392	0.066528	-0.00473	0.047607	-0.023956	-0.006561	-0.016327
13.222	0.005646	-0.063324	-0.08255	-0.003052	0.043182	-0.02121	0.04364	0.006714	0.18723	-0.059967	0.03479	0.008698	0.014038	-0.16678	0.074005	-0.007782	-0.010834	0.29938	0.7106	0.10422	0.14786	0.067902	0.17288	0.024109	-0.052032	0.030212	0.015106	-0.003204	0.059204	-0.05127	-0.007172	-0.025024
13.223	0.002594	-0.053253	-0.14816	-0.003357	0.048065	0.016327	-0.042114	-0.005951	0.15045	-0.016022	0.11231	0.012512	0.10712	-0.14816	0.049286	-0.00351	-0.008698	0.26901	0.79895	0.036316	0.16769	0.074005	0.14343	-0.026703	-0.065613	0.041809	0.1355	-0.005035	0.10162	-0.068512	0.005341	-0.020142
13.224	0.007019	-0.045166	-0.14084	0.004272	0.016632	0.075836	-0.049896	0.000305	0.20126	-0.048981	0.092163	0.012817	0.14252	-0.037231	0.03891	0.010529	0.00885	0.24857	0.59021	-0.006561	0.17624	0.065765	0.14526	-0.017242	-0.049133	0.049133	0.32471	-0.003357	0.11154	-0.074158	-0.004272	-0.025787
13.225	-0.001373	-0.028381	-0.075684	-0.004578	-0.008698	0.14511	0.10254	-0.00473	0.31677	-0.046539	0.071716	0.012207	0.082092	0.007782	-0.001831	0.005951	0.019836	0.28473	0.40298	-0.057373	0.15243	0.063629	0.12985	-0.018616	-0.037537	0.048523	0.21988	-0.005188	0.13458	-0.075684	-0.007019	-0.022583
13.226	-0.008545	-0.023193	-0.097656	0.005646	-0.031586	0.12833	0.1384	0.004425	0.43106	-0.010681	-0.07019	0.006866	-0.007019	-0.083008	-0.011597	0.002747	0.005646	0.26993	0.44342	-0.11353	0.15457	0.049896	0.10895	-0.076141	-0.052948	0.055389	0.24826	-0.009003	-0.023804	-0.091248	-0.009308	-0.019226
13.227	0.011749	-0.05249	-0.08255	0.011597	-0.05127	0.056763	0.15503	-0.016937	0.35812	-0.006561	-0.24719	0.008087	-0.034943	-0.040741	0.2121	-0.001221	0.005798	0.27969	0.56427	-0.12451	0.14893	0.052032	0.10086	-0.13046	-0.061188	0.053558	0.20538	-0.005341	0.052338	-0.063782	-0.004272	-0.01236
13.228	0.012054	-0.061493	0.025482	0.015411	0.028076	0.019836	0.22522	-0.022736	0.093689	-0.003052	-0.16495	0.015259	-0.032654	-0.040131	-0.18127	0.001373	0.005798	0.20203	0.3122	-0.1294	0.14999	0.061035	0.016174	-0.098877	-0.036621	0.055847	0.03891	-0.001526	0.084686	-0.12985	-0.006866	-0.011292
13.229	0.003357	-0.072174	-0.029602	0.018005	0.02594	0.050201	0.25223	-0.037689	-0.17731	-0.010376	-0.06424	0.003204	0.032043	-0.068817	-0.030518	0.007172	-0.00351	0.19241	0.47546	-0.083313	0.14175	0.065765	0.049286	-0.0914	-0.045929	0.05249	-0.068817	0.001068	-0.015869	-0.16846	-0.005188	-0.012665
13.23	0.011139	-0.10895	-0.12009	0.016479	0.000305	0.029144	0.22888	-0.006104	-0.06958	-0.038452	0.050812	0.011749	0.068817	-0.070801	-0.24826	0.00885	-0.007019	0.12024	0.45639	-0.061951	0.14099	0.059509	0.10635	-0.14801	-0.062714	0.055084	-0.22064	-0.007019	-0.11047	-0.13916	-0.006561	-0.022583
13.231	-0.000305	-0.1329	-0.1181	0.019226	-0.011292	0.002594	0.23041	-0.018768	-0.041504	-0.067139	0.15671	0.013275	0.087128	-0.029144	-0.059814	0.003204	-0.002136	0.14908	0.40054	-0.009003	0.1384	0.064545	0.1387	-0.06424	-0.060577	0.052032	0.26215	-0.001984	-0.20905	-0.10376	-0.003357	-0.021973
13.232	0.003662	-0.12039	-0.11185	-0.008545	0.025787	-0.021667	0.24918	0.005188	-0.020447	-0.042114	0.19348	0.007324	0.011444	-0.011597	0.31601	0.006256	-0.013123	0.11688	0.56686	0.015564	0.12024	0.058136	0.14481	-0.030365	-0.036774	0.070496	0.33386	-0.001984	-0.41672	-0.18127	-0.002136	-0.011902
